<mxfile host="app.diagrams.net" modified="2024-04-23T16:12:29.954Z" agent="Mozilla/5.0 (Macintosh; Intel Mac OS X 10.15; rv:124.0) Gecko/20100101 Firefox/124.0" etag="FNFJRG-ATrsDcjkrNAu2" version="24.2.7" type="github">
  <diagram name="Page-1" id="yOH1nykhaTfIMaTvxgoD">
    <mxGraphModel dx="2284" dy="822" grid="1" gridSize="10" guides="1" tooltips="1" connect="1" arrows="1" fold="1" page="1" pageScale="1" pageWidth="850" pageHeight="1100" math="0" shadow="0">
      <root>
        <mxCell id="0" />
        <mxCell id="1" parent="0" />
        <mxCell id="B3-kh0PU2SCvnZexsX5M-3" value="" style="shape=image;verticalLabelPosition=bottom;labelBackgroundColor=default;verticalAlign=top;aspect=fixed;imageAspect=0;image=https://images.credly.com/size/110x110/images/00634f82-b07f-4bbd-a6bb-53de397fc3a6/image.png;" vertex="1" parent="1">
          <mxGeometry x="-170" y="180" width="110" height="110" as="geometry" />
        </mxCell>
        <mxCell id="B3-kh0PU2SCvnZexsX5M-4" value="" style="shape=image;verticalLabelPosition=bottom;labelBackgroundColor=default;verticalAlign=top;aspect=fixed;imageAspect=0;image=https://images.credly.com/size/110x110/images/0e284c3f-5164-4b21-8660-0d84737941bc/image.png;" vertex="1" parent="1">
          <mxGeometry x="-80" y="180" width="110" height="110" as="geometry" />
        </mxCell>
        <mxCell id="B3-kh0PU2SCvnZexsX5M-6" value="" style="shape=image;verticalLabelPosition=bottom;labelBackgroundColor=default;verticalAlign=top;aspect=fixed;imageAspect=0;image=https://images.credly.com/size/110x110/images/f0d3fbb9-bfa7-4017-9989-7bde8eaf42b1/image.png;" vertex="1" parent="1">
          <mxGeometry x="10" y="180" width="110" height="110" as="geometry" />
        </mxCell>
        <mxCell id="B3-kh0PU2SCvnZexsX5M-8" value="" style="shape=image;verticalLabelPosition=bottom;labelBackgroundColor=default;verticalAlign=top;aspect=fixed;imageAspect=0;image=https://images.credly.com/size/110x110/images/b9feab85-1a43-4f6c-99a5-631b88d5461b/image.png;" vertex="1" parent="1">
          <mxGeometry x="100" y="180" width="110" height="110" as="geometry" />
        </mxCell>
        <mxCell id="B3-kh0PU2SCvnZexsX5M-9" value="" style="shape=image;verticalLabelPosition=bottom;labelBackgroundColor=default;verticalAlign=top;aspect=fixed;imageAspect=0;image=https://images.credly.com/size/110x110/images/e5c85d7f-4e50-431e-b5af-fa9d9b0596e7/image.png;" vertex="1" parent="1">
          <mxGeometry x="190" y="180" width="110" height="110" as="geometry" />
        </mxCell>
        <mxCell id="B3-kh0PU2SCvnZexsX5M-10" value="" style="shape=image;verticalLabelPosition=bottom;labelBackgroundColor=default;verticalAlign=top;aspect=fixed;imageAspect=0;image=https://images.credly.com/size/110x110/images/2d84e428-9078-49b6-a804-13c15383d0de/image.png;" vertex="1" parent="1">
          <mxGeometry x="280" y="180" width="110" height="110" as="geometry" />
        </mxCell>
        <mxCell id="B3-kh0PU2SCvnZexsX5M-11" value="" style="shape=image;verticalLabelPosition=bottom;labelBackgroundColor=default;verticalAlign=top;aspect=fixed;imageAspect=0;image=https://images.credly.com/size/110x110/images/bd31ef42-d460-493e-8503-39592aaf0458/image.png;" vertex="1" parent="1">
          <mxGeometry x="370" y="180" width="110" height="110" as="geometry" />
        </mxCell>
        <mxCell id="B3-kh0PU2SCvnZexsX5M-12" value="" style="shape=image;verticalLabelPosition=bottom;labelBackgroundColor=default;verticalAlign=top;aspect=fixed;imageAspect=0;image=https://images.credly.com/size/110x110/images/53acdae5-d69f-4dda-b650-d02ed7a50dd7/image.png;" vertex="1" parent="1">
          <mxGeometry x="460" y="180" width="110" height="110" as="geometry" />
        </mxCell>
        <mxCell id="B3-kh0PU2SCvnZexsX5M-13" value="" style="shape=image;verticalLabelPosition=bottom;labelBackgroundColor=default;verticalAlign=top;aspect=fixed;imageAspect=0;image=https://images.credly.com/size/110x110/images/885d38e4-55c0-4c35-b4ed-694e2b26be6c/image.png;" vertex="1" parent="1">
          <mxGeometry x="550" y="180" width="110" height="110" as="geometry" />
        </mxCell>
        <mxCell id="B3-kh0PU2SCvnZexsX5M-14" value="" style="shape=image;verticalLabelPosition=bottom;labelBackgroundColor=default;verticalAlign=top;aspect=fixed;imageAspect=0;image=https://images.credly.com/size/110x110/images/6430efe4-0ac0-4df6-8f1b-9559d8fcdf27/image.png;" vertex="1" parent="1">
          <mxGeometry x="640" y="180" width="110" height="110" as="geometry" />
        </mxCell>
        <mxCell id="B3-kh0PU2SCvnZexsX5M-15" value="" style="shape=image;verticalLabelPosition=bottom;labelBackgroundColor=default;verticalAlign=top;aspect=fixed;imageAspect=0;image=https://images.credly.com/size/110x110/images/57bb7f6a-441f-4356-a2f1-7693227a475e/image.png;" vertex="1" parent="1">
          <mxGeometry x="730" y="180" width="110" height="110" as="geometry" />
        </mxCell>
      </root>
    </mxGraphModel>
  </diagram>
</mxfile>
